<?xml version="1.0" encoding="UTF-8"?>
<svg xmlns="http://www.w3.org/2000/svg" viewBox="0 0 400 460">
  <defs>
    <style>
      .cls-1 { stroke: #e7d31c; stroke-width: 15px; fill: none; stroke-miterlimit: 10; }
      .cls-2 { stroke: #003b13; stroke-width: 15px; fill: none; stroke-miterlimit: 10; }
      .cls-3 { stroke: #003b13; stroke-width: 18px; stroke-linecap: round; fill: none; stroke-miterlimit: 10; }
      .cls-4 { fill: #e7d31c; stroke: #000; stroke-miterlimit: 10; }
      .cls-5 { fill: #003b13; }
    </style>
  </defs>
  <circle class="cls-5" cx="344.58" cy="390.92" r="36"/>
  <circle class="cls-4" cx="344.58" cy="390.92" r="22.18"/>
  <path class="cls-2" d="M344.58,368.74s4.93-46.39-41.14-46.39c-49.48,0-48.21,48-48.21,48v21.64s1.71,44.14-46.71,44.14c-45.21,0-42.66-43.71-42.66-43.71l-.14-78.32c1.12-26.68-7.34-39.21-1.12-69.11,2.83-13.62,25.41-55.1,22.72-90-2.15-27.86-15.44-55.93-28.94-73.71"/>
  <path class="cls-1" d="M111.43,126.71s-37.13,8.65-42.1,25.61c-7.29,24.86,20.67,94.82,20.67,94.82"/>
  <path class="cls-1" d="M231.25,126.3s36.86,9.76,41.32,26.85c6.54,25.06-23.5,94.16-23.5,94.16"/>
  <path class="cls-3" d="M90,247.14s24.35,62.15,82.29,58.29c57.86-3.86,76.71-58.29,76.71-58.29"/>
  <circle class="cls-5" cx="121.72" cy="123.28" r="16.71"/>
  <circle class="cls-5" cx="216.86" cy="123.28" r="16.71"/>
  <path class="cls-5" d="M89.67,92.23c.43-7.54,3.12-13.3,3.12-13.3-7.3,3.92-11.22,9.82-13.31,14.67-.72.11-1.42.22-2.12.33-10.28,1.65-22.99,4.36-35.11,7.18-.63.15-1.26.29-1.88.44,0-9.28,2.94-16.79,3.12-17.25-.41.37-9.65,9.15-12.64,19.52-17.16,4.18-30.85,7.89-30.85,7.89,6-26.57,25.72-42.43,43.72-50.14,13.32-5.71,36.43-11.79,67.71-2.79,31.29,9,48.65,28.29,48.65,28.29,0,0-39.91,1.48-70.41,5.16Z"/>
  <path class="cls-5" d="M172.29,90.5l-11.57.21s-19.98-30.63-72.64-54.16c6.02-3.88,14.57-6.48,14.57-6.48-7.56.35-15.18,2.27-20.51,3.92-9.98-4.16-21.04-8.04-33.26-11.41,4.4-3.84,10.48-6.65,10.48-6.65-5.1.12-11.12,2.92-15.38,5.33-6.68-1.72-13.69-3.3-21.05-4.69,0,0,18.43-19.07,53.36-16.29,34.93,2.79,63.43,26.94,74.57,45.08,11.14,18.14,21.43,45.14,21.43,45.14Z"/>
  <path class="cls-5" d="M264.86,17.43s6.28,3.5,10.49,7.22c-8.93,3.05-18.95,6.65-28.59,10.5-5.27-1.49-12.26-2.82-19.4-2.3,0,0,6.79,2.21,12.05,5.31-.37.16-.75.32-1.12.48-51.13,21.81-68.57,55.07-68.57,55.07l-5.14-6c9.42-54.86,48.9-76.29,64.07-81.64,40.07-14.14,75.85,9.21,75.85,9.21,0,0-8.57,2.52-20.7,6.53-4.8-2.26-12.27-5.04-18.94-4.38Z"/>
  <path class="cls-5" d="M334.93,114.28c-11.18-4.78-22.08-8.7-32.61-11.91h-.01c-4.55-9.19-11.31-16.59-11.31-16.59,1.51,5.11,1.84,9.89,1.68,13.82-14.44-3.9-28.07-6.47-40.6-8.1-6.27-8.19-17.02-14.21-17.52-14.48.24.41,3.4,5.69,4.71,13.1-40.66-3.5-66.98,2.73-66.98,2.73l-.62-3.93c29.78-35.14,80.7-38.68,111.83-29.28,45.43,13.71,51.43,54.64,51.43,54.64Z"/>
</svg>
