<?xml version="1.0" encoding="UTF-8"?>
<svg id="Layer_1" data-name="Layer 1" xmlns="http://www.w3.org/2000/svg" viewBox="0 0 1036.34 443.64">
  <defs>
    <style>
      .cls-1 {
        stroke: #e7d31c;
      }

      .cls-1, .cls-2 {
        stroke-width: 15px;
      }

      .cls-1, .cls-2, .cls-3 {
        fill: none;
      }

      .cls-1, .cls-2, .cls-3, .cls-4 {
        stroke-miterlimit: 10;
      }

      .cls-5 {
        fill: #003b13;
      }

      .cls-2, .cls-3 {
        stroke: #003b13;
      }

      .cls-3 {
        stroke-linecap: round;
        stroke-width: 18px;
      }

      .cls-4 {
        fill: #e7d31c;
        stroke: #000;
      }
    </style>
  </defs>
  <g>
    <path class="cls-5" d="M421.75,154.06V50.68h22.7v103.38h-22.7Z"/>
    <path class="cls-5" d="M530.75,81.52c-1.63-6.2-3.53-9.3-7.61-11.78-4.21-2.48-9.24-3.56-15.9-3.56-13.46,0-21.47,4.65-21.47,12.4,0,5.89,3.53,8.52,13.18,9.61l22.02,2.64c11.69,1.24,17.94,2.94,24.06,6.51,8.29,4.65,13.46,14.26,13.46,25.11,0,12.09-6.25,22.94-16.44,28.52-8.7,4.8-18.89,6.82-33.57,6.82-18.48,0-31.53-4.03-39.82-12.25-6.39-6.2-8.7-13.02-9.51-26.66h23.78c.68,6.82,2.31,10.38,5.98,13.64,5.03,4.34,11.28,6.2,20.66,6.2,14.81,0,23.38-4.96,23.38-13.48,0-6.82-4.49-10.23-15.09-11.47l-25.55-2.94c-19.84-2.33-30.58-12.56-30.58-28.98,0-21.54,17.4-34.72,45.67-34.72,14.27,0,27.18,3.72,35.34,10.08,7.07,5.58,10.19,12.09,11.96,24.33h-23.92Z"/>
    <path class="cls-5" d="M573.16,154.06V50.68h22.7v82.46h47.3v20.92h-69.99Z"/>
    <path class="cls-5" d="M682.84,131.74l-8.43,22.32h-25.14l43.08-103.38h22.29l42.95,103.38h-25.42l-9.11-22.32h-40.23ZM707.84,94.69c-2.58-6.35-3.81-9.61-5.57-14.41-1.77,4.96-2.17,6.2-5.3,14.72l-5.98,15.81h23.65l-6.79-16.12Z"/>
    <path class="cls-5" d="M836.15,154.06l-23.38-35.34c-11.96-18.13-19.71-31-25.14-40.92.54,9.45.54,11.78.68,45.1v31.15h-22.02V50.68h27.18l22.02,33.01c8.56,12.87,21.2,33.02,26.77,42.94-.41-5.89-.68-19.53-.68-44.33v-31.62h22.02v103.38h-27.45Z"/>
    <path class="cls-5" d="M882.9,50.68h45.8c16.58,0,26.23,2.48,34.93,9.15,11.55,8.99,18.48,24.49,18.48,41.69s-6.93,33.01-18.89,42.31c-8.97,7.13-19.84,10.23-35.07,10.23h-45.26V50.68ZM928.43,133.13c18.48,0,28.81-11.16,28.81-30.84s-10.33-30.69-28.81-30.69h-22.83v61.53h22.83Z"/>
    <path class="cls-5" d="M421.75,294.06v-103.38h82.91v20.92h-60.21v17.51h53.28v20.92h-53.28v23.09h60.21v20.92h-82.91Z"/>
    <path class="cls-5" d="M617.19,253.6c-6.52,29.61-24.19,44.17-53.41,44.17-16.58,0-29.63-4.65-39.14-14.1-10.06-9.76-15.36-23.87-15.36-40.3,0-34.1,21.75-56.26,55.04-56.26,15.9,0,28.41,4.8,38.19,14.88,7.2,7.29,11.28,14.72,13.32,24.8h-24.46c-4.62-13.02-13.59-19.53-27.05-19.53-18.21,0-30.99,14.73-30.99,35.65s12.5,34.72,30.44,34.72c14.54,0,23.11-7.29,28.41-24.03h25.01Z"/>
    <path class="cls-5" d="M647.37,251.13v42.93h-22.7v-103.38h22.7v39.52h46.62v-39.52h22.7v103.38h-22.7v-42.93h-46.62Z"/>
    <path class="cls-5" d="M835.47,243.07c0,14.26-6.12,29.29-16.04,39.06-9.92,9.92-24.19,15.5-39.41,15.5-31.67,0-55.45-23.71-55.45-55.33s23.78-55.18,55.32-55.18,55.59,23.41,55.59,55.96ZM749.44,242.29c0,19.84,13.32,35.18,30.58,35.18s30.58-15.34,30.58-34.72-13.18-35.5-30.72-35.5-30.44,15.35-30.44,35.03Z"/>
    <path class="cls-5" d="M843.35,294.06v-103.38h82.91v20.92h-60.21v17.51h53.28v20.92h-53.28v23.09h60.21v20.92h-82.91Z"/>
    <path class="cls-5" d="M1002.91,221.52c-1.63-6.2-3.53-9.3-7.61-11.78-4.21-2.48-9.24-3.57-15.9-3.57-13.46,0-21.47,4.65-21.47,12.4,0,5.89,3.53,8.52,13.18,9.61l22.02,2.63c11.69,1.24,17.94,2.94,24.06,6.51,8.29,4.65,13.46,14.26,13.46,25.11,0,12.09-6.25,22.94-16.45,28.52-8.7,4.8-18.89,6.82-33.57,6.82-18.48,0-31.53-4.03-39.82-12.25-6.39-6.2-8.7-13.02-9.51-26.66h23.78c.68,6.82,2.31,10.38,5.98,13.64,5.03,4.34,11.28,6.2,20.66,6.2,14.81,0,23.38-4.96,23.38-13.49,0-6.82-4.49-10.23-15.09-11.47l-25.55-2.95c-19.84-2.32-30.58-12.55-30.58-28.98,0-21.54,17.4-34.72,45.67-34.72,14.27,0,27.18,3.72,35.34,10.08,7.07,5.58,10.19,12.09,11.96,24.33h-23.92Z"/>
    <path class="cls-5" d="M463.43,394.06v-31.4h-35.78v31.4h-9.03v-66.7h9.03v26.6h35.78v-26.6h9.03v66.7h-9.03Z"/>
    <path class="cls-5" d="M497.8,394.06v-66.7h47.88v9.3h-38.85v18.7h36.57v9.3h-36.57v20.1h39.64v9.3h-48.67Z"/>
    <path class="cls-5" d="M582.5,374.86l-7.63,19.2h-10.26l27.18-66.7h10.17l27.36,66.7h-10.87l-7.63-19.2h-28.33ZM596.53,338.86l-10.7,27.3h21.57l-10.87-27.3Z"/>
    <path class="cls-5" d="M648,394.06v-66.7h9.03v57.4h36.57v9.3h-45.6Z"/>
    <path class="cls-5" d="M721.84,394.06v-57.4h-22.36v-9.3h53.93v9.3h-22.54v57.4h-9.03Z"/>
    <path class="cls-5" d="M817.77,394.06v-31.4h-35.78v31.4h-9.03v-66.7h9.03v26.6h35.78v-26.6h9.03v66.7h-9.03Z"/>
  </g>
  <circle class="cls-5" cx="344.58" cy="390.92" r="36"/>
  <circle class="cls-4" cx="344.58" cy="390.92" r="22.18"/>
  <path class="cls-2" d="M344.58,368.74s4.93-46.39-41.14-46.39c-49.48,0-48.21,48-48.21,48v21.64s1.71,44.14-46.71,44.14c-45.21,0-42.66-43.71-42.66-43.71l-.14-78.32c1.12-26.68-7.34-39.21-1.12-69.11,2.83-13.62,25.41-55.1,22.72-90-2.15-27.86-15.44-55.93-28.94-73.71"/>
  <path class="cls-1" d="M111.43,126.71s-37.13,8.65-42.1,25.61c-7.29,24.86,20.67,94.82,20.67,94.82"/>
  <path class="cls-1" d="M231.25,126.3s36.86,9.76,41.32,26.85c6.54,25.06-23.5,94.16-23.5,94.16"/>
  <path class="cls-3" d="M90,247.14s24.35,62.15,82.29,58.29c57.86-3.86,76.71-58.29,76.71-58.29"/>
  <circle class="cls-5" cx="121.72" cy="123.28" r="16.71"/>
  <circle class="cls-5" cx="216.86" cy="123.28" r="16.71"/>
  <path class="cls-5" d="M89.67,92.23c.43-7.54,3.12-13.3,3.12-13.3-7.3,3.92-11.22,9.82-13.31,14.67-.72.11-1.42.22-2.12.33-10.28,1.65-22.99,4.36-35.11,7.18-.63.15-1.26.29-1.88.44,0-9.28,2.94-16.79,3.12-17.25-.41.37-9.65,9.15-12.64,19.52-17.16,4.18-30.85,7.89-30.85,7.89,6-26.57,25.72-42.43,43.72-50.14,13.32-5.71,36.43-11.79,67.71-2.79,31.29,9,48.65,28.29,48.65,28.29,0,0-39.91,1.48-70.41,5.16Z"/>
  <path class="cls-5" d="M172.29,90.5l-11.57.21s-19.98-30.63-72.64-54.16c6.02-3.88,14.57-6.48,14.57-6.48-7.56.35-15.18,2.27-20.51,3.92-9.98-4.16-21.04-8.04-33.26-11.41,4.4-3.84,10.48-6.65,10.48-6.65-5.1.12-11.12,2.92-15.38,5.33-6.68-1.72-13.69-3.3-21.05-4.69,0,0,18.43-19.07,53.36-16.29,34.93,2.79,63.43,26.94,74.57,45.08,11.14,18.14,21.43,45.14,21.43,45.14Z"/>
  <path class="cls-5" d="M264.86,17.43s6.28,3.5,10.49,7.22c-8.93,3.05-18.95,6.65-28.59,10.5-5.27-1.49-12.26-2.82-19.4-2.3,0,0,6.79,2.21,12.05,5.31-.37.16-.75.32-1.12.48-51.13,21.81-68.57,55.07-68.57,55.07l-5.14-6c9.42-54.86,48.9-76.29,64.07-81.64,40.07-14.14,75.85,9.21,75.85,9.21,0,0-8.57,2.52-20.7,6.53-4.8-2.26-12.27-5.04-18.94-4.38Z"/>
  <path class="cls-5" d="M334.93,114.28c-11.18-4.78-22.08-8.7-32.61-11.91h-.01c-4.55-9.19-11.31-16.59-11.31-16.59,1.51,5.11,1.84,9.89,1.68,13.82-14.44-3.9-28.07-6.47-40.6-8.1-6.27-8.19-17.02-14.21-17.52-14.48.24.41,3.4,5.69,4.71,13.1-40.66-3.5-66.98,2.73-66.98,2.73l-.62-3.93c29.78-35.14,80.7-38.68,111.83-29.28,45.43,13.71,51.43,54.64,51.43,54.64Z"/>
</svg>
